<?xml version="1.0" encoding="UTF-8"?>
<svg version="1.1" xmlns="http://www.w3.org/2000/svg" width="614" height="614">
<path d="M0 0 C1.1101337 -0.00815804 2.22026739 -0.01631607 3.36404151 -0.02472132 C4.58357262 -0.02862968 5.80310374 -0.03253804 7.05959034 -0.03656483 C8.3552276 -0.04447491 9.65086486 -0.05238499 10.98576385 -0.06053478 C14.58503818 -0.08220588 18.18431567 -0.09752615 21.78362644 -0.11167514 C24.87010393 -0.12458546 27.9565578 -0.1411351 31.04301777 -0.1576524 C60.30004963 -0.3135838 89.55762918 -0.38865367 118.81499481 -0.44927216 C122.62274868 -0.45730079 126.43050222 -0.46546913 130.2382555 -0.47377491 C131.1846482 -0.47583251 132.1310409 -0.47789012 133.10611216 -0.48001007 C148.43859165 -0.51443352 163.77065329 -0.58709247 179.10291126 -0.67468252 C194.84527388 -0.76387075 210.58741975 -0.81520116 226.33002979 -0.83057433 C235.16869243 -0.84023007 244.00660186 -0.86697723 252.84501171 -0.93688488 C260.37193527 -0.99639516 267.89800548 -1.02207963 275.42515864 -1.00354602 C279.26489441 -0.9951595 283.10278958 -1.00291559 286.94222736 -1.05453205 C291.10896862 -1.11011093 295.27173478 -1.08786441 299.43874073 -1.05829334 C301.25130699 -1.10096278 301.25130699 -1.10096278 303.10049075 -1.14449424 C308.11957657 -1.05276505 311.30357482 -0.87077271 315.28682387 2.35150659 C317.56490561 4.85674487 319.59178762 7.40328994 321.56662464 10.15098095 C322.81959339 11.6514497 322.81959339 11.6514497 324.09787464 13.18223095 C324.74756214 13.99691845 325.39724964 14.81160595 326.06662464 15.65098095 C329.79465081 20.27819653 333.72699562 24.64984412 337.81662464 28.9595747 C339.56662464 31.15098095 339.56662464 31.15098095 340.56662464 35.15098095 C335.61662464 39.60598095 335.61662464 39.60598095 330.56662464 44.15098095 C326.86646069 42.91759297 326.0195943 41.51277651 323.62912464 38.46348095 C319.87826917 33.76257328 316.04880519 29.14970366 312.12912464 24.58848095 C311.60906849 23.98109081 311.08901234 23.37370068 310.55319691 22.74790478 C307.17693544 18.13207853 307.17693544 18.13207853 302.3816281 15.89913195 C301.46487049 15.89826518 300.54811289 15.8973984 299.60357475 15.89650536 C298.54742409 15.89067316 297.49127342 15.88484097 296.40311819 15.87883204 C294.64883927 15.88450103 294.64883927 15.88450103 292.85912037 15.89028454 C291.62377283 15.88645899 290.38842528 15.88263344 289.11564296 15.87869197 C285.67524721 15.87012845 282.235064 15.87060712 278.79467404 15.87487257 C275.08824945 15.8773305 271.38185042 15.86833693 267.67543507 15.86083508 C260.40751513 15.84805694 253.13963208 15.8462985 245.8717028 15.84863534 C239.96175228 15.8504163 234.05181299 15.84867361 228.14186382 15.8444109 C227.30160094 15.84381571 226.46133805 15.84322052 225.59561266 15.84260729 C223.88867077 15.84139556 222.18172888 15.84018142 220.47478699 15.83896492 C204.44797194 15.82807601 188.42117791 15.83025741 172.39436167 15.83634976 C157.74227796 15.84151204 143.09026088 15.83028412 128.43819035 15.81125154 C113.39421252 15.79185991 98.35026619 15.78361998 83.30627578 15.78737479 C74.86019002 15.78928587 66.41416086 15.78680907 57.96808529 15.77266026 C50.77219245 15.7607281 43.576391 15.75936157 36.38049687 15.77145042 C32.71130304 15.77732819 29.04227619 15.77846958 25.37309361 15.76644802 C21.38759148 15.75354258 17.40248453 15.76408093 13.4169817 15.77675915 C12.26753891 15.76938486 11.11809612 15.76201058 9.93382174 15.75441283 C-1.31744226 15.82951582 -11.56091311 17.92993693 -20.08181286 25.64316845 C-28.93011946 35.03045819 -31.74279416 47.58416792 -31.70803356 60.08018017 C-31.71314449 61.04064251 -31.71825542 62.00110485 -31.72352123 62.99067211 C-31.73734928 66.1457354 -31.73646553 69.30057857 -31.73415661 72.45566845 C-31.73804732 74.66230379 -31.74238276 76.86893838 -31.74714184 79.07557201 C-31.75458952 83.69366925 -31.75432333 88.31169002 -31.74904919 92.92978954 C-31.74325723 98.82965562 -31.76018625 104.72920749 -31.78339386 110.62902164 C-31.79816991 115.18453819 -31.79899761 119.73997975 -31.79588413 124.29551601 C-31.79639542 126.46988707 -31.80159674 128.64426253 -31.81169605 130.81861019 C-31.82411794 133.86694172 -31.8172342 136.91466984 -31.80568981 139.96299267 C-31.81333355 140.8495454 -31.82097729 141.73609814 -31.82885265 142.64951611 C-31.74380259 152.87835792 -28.8388278 162.17871636 -21.90603161 169.83848095 C-13.86186036 177.40946565 -3.72875976 179.2704303 6.98686123 179.28520203 C7.71618982 179.28755426 8.44551841 179.28990649 9.19694787 179.29233 C11.64193537 179.29898935 14.08686934 179.2985627 16.53186512 179.29815197 C18.30215611 179.30145249 20.07244636 179.30517846 21.84273565 179.30929345 C26.70869006 179.31929992 31.57463214 179.32302805 36.44059539 179.32568276 C41.68821755 179.32958975 46.93582999 179.33916772 52.18344593 179.34789562 C64.8559345 179.36764738 77.52842386 179.37772395 90.20092398 179.38662341 C96.16957944 179.39100784 102.13823401 179.39637419 108.10688877 179.40161228 C127.94885098 179.41862217 147.79081265 179.43311673 167.63278103 179.44036102 C172.78048802 179.44227089 177.92819501 179.44419123 183.07590199 179.44614697 C184.3553256 179.44663071 185.63474922 179.44711445 186.95294325 179.44761284 C207.68263298 179.45591467 228.41226504 179.48125524 249.14192958 179.51372764 C270.42709222 179.54679832 291.71222553 179.56480974 312.99741399 179.56800526 C324.94731529 179.57017019 336.89713245 179.57891656 348.84700871 179.60446644 C359.022933 179.62617337 369.1987527 179.63422378 379.37469752 179.62449966 C384.56504059 179.61995518 389.75516784 179.62185004 394.9454813 179.6412611 C399.70157981 179.65889443 404.45730508 179.65789355 409.21340756 179.64236381 C410.92945106 179.63998803 412.64552042 179.64430969 414.36152442 179.65619246 C428.74459942 179.74958209 440.54121011 177.87626293 451.21115589 167.5611372 C460.00523743 158.09915074 462.88970163 146.62665883 462.8254137 134.02622509 C462.82891834 133.16315243 462.83242298 132.30007977 462.83603382 131.41085339 C462.84476504 128.58586375 462.83903209 125.76112895 462.83224964 122.9361372 C462.83359889 120.95513391 462.83554158 118.97413094 462.83804798 116.99312878 C462.8409877 112.8517849 462.83673921 108.71052761 462.82736683 104.56919384 C462.81598053 99.2825969 462.82253396 93.99620327 462.83451176 88.7096138 C462.84176791 84.62162296 462.8394251 80.53367963 462.83425617 76.44568729 C462.83292966 74.49740035 462.83453208 72.54910898 462.83921528 70.60082722 C462.87092622 53.70120928 462.20764644 39.3128266 450.08615589 26.2642622 C441.74897485 19.27137081 432.15153032 16.02589787 421.40158558 15.94565868 C420.17175953 15.93080929 420.17175953 15.93080929 418.91708851 15.9156599 C416.21175475 15.88411612 413.50640345 15.85931566 410.80099964 15.8345747 C408.92341122 15.81399902 407.04582737 15.79300239 405.16824818 15.77160168 C400.22978894 15.7164444 395.29128834 15.66700715 390.35275745 15.61875439 C385.31202996 15.56849303 380.27136244 15.51283116 375.23068714 15.45762157 C365.34271755 15.3501176 355.45469587 15.2486554 345.56662464 15.15098095 C345.56662464 10.20098095 345.56662464 5.25098095 345.56662464 0.15098095 C356.94615361 0.03465282 368.32553895 -0.05395361 379.70554352 -0.10807991 C384.9909139 -0.13407016 390.27587468 -0.16927328 395.56100941 -0.22621632 C400.67038731 -0.28091537 405.77937355 -0.31051891 410.88902187 -0.32340527 C412.82930947 -0.33257757 414.7695779 -0.35048741 416.70969677 -0.37766933 C434.43243074 -0.615887 448.61828723 2.85427234 462.19162464 15.21348095 C477.32197488 31.47405012 479.19796777 47.71975248 479.16818714 68.9830122 C479.17597591 71.30647617 479.18464827 73.62993733 479.1941576 75.95339489 C479.20902559 80.80914597 479.20854109 85.66460609 479.1979723 90.52036572 C479.18639398 96.7069447 479.22024356 102.89232396 479.26666164 109.07870483 C479.29629459 113.87380327 479.29785839 118.66861805 479.29164219 123.46379185 C479.29266082 125.74290052 479.30298806 128.02202673 479.32326603 130.30104542 C479.48773984 151.36952596 475.46703453 165.67524055 460.69162464 181.46348095 C449.88334226 191.74606866 435.89845181 196.26821456 421.16479874 196.28240871 C420.0737878 196.28548766 420.0737878 196.28548766 418.96073624 196.28862882 C416.52249944 196.29428512 414.08431936 196.29284326 411.64607716 196.29142284 C409.88062381 196.29400727 408.11517106 196.29702065 406.34971911 196.30042624 C401.49709509 196.30849048 396.64448586 196.3102855 391.79185593 196.31102371 C386.55853099 196.31287528 381.32521371 196.32042317 376.0918932 196.32715893 C364.64752678 196.34073897 353.20316387 196.34676654 341.75879073 196.35116959 C334.61168675 196.35393272 327.46458411 196.35817022 320.31748104 196.36267376 C300.52613218 196.37486629 280.73478439 196.38516545 260.94343185 196.38854885 C259.67680766 196.38876842 258.41018347 196.38898798 257.10517672 196.3892142 C255.20071205 196.38954162 255.20071205 196.38954162 253.25777334 196.38987565 C250.6850239 196.39031912 248.11227447 196.39076568 245.53952503 196.39121532 C244.26335434 196.39143675 242.98718365 196.39165818 241.67234112 196.39188632 C220.99830375 196.39583352 200.32430165 196.41328522 179.65027791 196.43657485 C158.42048081 196.46029734 137.1907014 196.47275112 115.96089083 196.47391677 C104.04283259 196.47483305 92.12482029 196.48057366 80.20677471 196.49873638 C70.05724056 196.5141495 59.90776656 196.51925068 49.75822293 196.51099828 C44.58196929 196.50709602 39.40583672 196.50800074 34.22959805 196.52205563 C29.485219 196.5348198 24.74105168 196.53357492 19.99667282 196.52146491 C18.28599759 196.51951227 16.57530723 196.52256622 14.86465322 196.53130928 C-3.14162541 196.61746587 -20.25218488 193.71099418 -33.82400036 180.89316845 C-44.38501284 169.73766189 -48.90255815 156.86843798 -48.85329723 141.6092329 C-48.86176678 140.61895596 -48.87023632 139.62867901 -48.87896252 138.60839367 C-48.90216032 135.36854868 -48.90335856 132.1291836 -48.90212536 128.8892622 C-48.90923871 126.61160631 -48.9169394 124.33395219 -48.92519665 122.05630016 C-48.9386031 117.29296923 -48.9402281 112.52980392 -48.93435192 107.76645947 C-48.92846821 101.70228584 -48.95901148 95.63891622 -48.9994688 89.57489777 C-49.02549093 84.87242991 -49.02820993 80.17015172 -49.02457714 75.4676218 C-49.0262557 73.23400069 -49.0357744 71.00036959 -49.05372143 68.76681995 C-49.20494527 47.6172081 -45.89880959 29.32155202 -30.78493786 13.3736372 C-22.46508787 5.50985872 -11.56565195 0.06075642 0 0 Z " fill="#D10A11" transform="translate(94.43337535858154,204.84901905059814)"/>
<path d="M0 0 C1.7041054 1.62836738 3.38025441 3.28769752 5 5 C7.83892601 5 9.25289592 3.65989088 11.625 2.125 C18.72976067 -2.1969778 25.65742928 -3.94699451 34 -3 C39.88130521 -1.23560844 42.55274552 1.1332878 46 6 C48.2610533 12.7831599 46.79867238 18.86210681 44.6875 25.4375 C44.43258789 26.25718262 44.17767578 27.07686523 43.91503906 27.92138672 C42.96138092 30.95362813 41.98241521 33.97694938 41 37 C40.55613855 38.37287966 40.11229176 39.74576405 39.66845703 41.11865234 C38.45337435 44.86960267 37.22770268 48.61696762 35.99478149 52.36209106 C35.4986607 53.86948107 35.0040086 55.37735527 34.51083374 56.88571167 C33.8104664 59.02233339 33.10181808 61.15602339 32.390625 63.2890625 C31.97844727 64.53381348 31.56626953 65.77856445 31.14160156 67.06103516 C30 70 30 70 28 72 C26.06054688 72.25878906 26.06054688 72.25878906 23.71875 72.265625 C22.87699219 72.26820313 22.03523438 72.27078125 21.16796875 72.2734375 C19.84732422 72.26183594 19.84732422 72.26183594 18.5 72.25 C17.61957031 72.25773437 16.73914063 72.26546875 15.83203125 72.2734375 C14.99027344 72.27085937 14.14851563 72.26828125 13.28125 72.265625 C12.50845703 72.26336914 11.73566406 72.26111328 10.93945312 72.25878906 C9 72 9 72 7 70 C7.39127979 64.53112069 9.40216705 59.3527623 11.125 54.18359375 C11.43195801 53.24951187 11.73891602 52.31542999 12.05517578 51.3530426 C13.03266232 48.37981815 14.01583872 45.40852113 15 42.4375 C15.98364447 39.46274545 16.96597704 36.48758246 17.94482422 33.51124573 C18.55290392 31.6627373 19.16379009 29.81514911 19.77783203 27.96861267 C21.08381238 24.00264228 22.33505489 20.13512743 23 16 C21.43458023 16.2310134 19.8726613 16.4857975 18.3125 16.75 C17.44238281 16.88921875 16.57226562 17.0284375 15.67578125 17.171875 C11.24595887 18.54285653 8.66196328 20.96106933 6.18481445 24.84887695 C1.65918943 34.06308466 -1.72077012 43.40807042 -4.8125 53.1875 C-5.52565894 55.41772057 -6.24204646 57.64680759 -6.96354675 59.87434387 C-7.40633609 61.24378715 -7.84405024 62.61488542 -8.27583313 63.98783875 C-9.25121722 67.02670271 -10.21246525 69.31869787 -12 72 C-13.93945312 72.35644531 -13.93945312 72.35644531 -16.28125 72.328125 C-17.12300781 72.32296875 -17.96476562 72.3178125 -18.83203125 72.3125 C-19.71246094 72.291875 -20.59289062 72.27125 -21.5 72.25 C-22.38042969 72.24484375 -23.26085937 72.2396875 -24.16796875 72.234375 C-30.69108124 72.15445938 -30.69108124 72.15445938 -33 71 C-32.44445566 65.21406044 -31.26957189 60.16743502 -29.34765625 54.6953125 C-29.08746201 53.9312912 -28.82726776 53.1672699 -28.55918884 52.38009644 C-27.73422038 49.95916962 -26.89945854 47.54180545 -26.0625 45.125 C-21.20692784 31.28693689 -21.20692784 31.28693689 -18 17 C-23.73236598 16.54141072 -26.55296547 17.34354939 -31 21 C-34.48964844 24.82757883 -36.39824294 28.82663675 -38.1875 33.625 C-38.4757666 34.379021 -38.7640332 35.13304199 -39.06103516 35.90991211 C-42.32104405 44.59039393 -45.19632498 53.40787105 -48.06713867 62.22314453 C-48.43427979 63.3470459 -48.8014209 64.47094727 -49.1796875 65.62890625 C-49.50694824 66.64025635 -49.83420898 67.65160645 -50.17138672 68.69360352 C-51 71 -51 71 -52 72 C-53.4887186 72.08669432 -54.981445 72.10703494 -56.47265625 72.09765625 C-57.37177734 72.09443359 -58.27089844 72.09121094 -59.19726562 72.08789062 C-60.61555664 72.07532227 -60.61555664 72.07532227 -62.0625 72.0625 C-63.01189453 72.05798828 -63.96128906 72.05347656 -64.93945312 72.04882812 C-67.29303065 72.0370011 -69.64648477 72.02052025 -72 72 C-73.12988281 70.46655273 -73.12988281 70.46655273 -74 68 C-73.44554263 65.37389172 -72.79365981 63.05453387 -71.921875 60.53515625 C-71.6795816 59.797314 -71.43728821 59.05947174 -71.18765259 58.29927063 C-70.38960146 55.88191791 -69.57029225 53.47238707 -68.75 51.0625 C-68.19502605 49.39896691 -67.64116048 47.73506367 -67.08837891 46.07080078 C-65.68228473 41.85175298 -64.25719809 37.63941243 -62.82507324 33.42913818 C-62.03730521 31.10983208 -61.25442119 28.78894903 -60.47363281 26.46728516 C-59.11652398 22.43339986 -57.74901716 18.40315463 -56.375 14.375 C-55.96217773 13.16207275 -55.54935547 11.94914551 -55.12402344 10.69946289 C-54.74020508 9.58949951 -54.35638672 8.47953613 -53.9609375 7.3359375 C-53.62884277 6.37220215 -53.29674805 5.4084668 -52.95458984 4.41552734 C-52 2 -52 2 -50 -1 C-48.16821289 -1.38818359 -48.16821289 -1.38818359 -45.97265625 -1.3984375 C-45.18052734 -1.40230469 -44.38839844 -1.40617187 -43.57226562 -1.41015625 C-42.74404297 -1.39855469 -41.91582031 -1.38695312 -41.0625 -1.375 C-40.23814453 -1.38660156 -39.41378906 -1.39820313 -38.56445312 -1.41015625 C-37.37432617 -1.40435547 -37.37432617 -1.40435547 -36.16015625 -1.3984375 C-35.43449463 -1.39505371 -34.70883301 -1.39166992 -33.96118164 -1.38818359 C-31.49576346 -0.90019468 -30.59085697 0.10750978 -29 2 C-28.39671875 1.72285156 -27.7934375 1.44570313 -27.171875 1.16015625 C-25.97304687 0.61681641 -25.97304687 0.61681641 -24.75 0.0625 C-23.96109375 -0.29714844 -23.1721875 -0.65679687 -22.359375 -1.02734375 C-14.74429895 -4.16667146 -7.26097248 -4.0493885 0 0 Z " fill="#372B86" transform="translate(191,279)"/>
<path d="M0 0 C0.83273437 -0.01224609 1.66546875 -0.02449219 2.5234375 -0.03710938 C3.71839844 -0.04000977 3.71839844 -0.04000977 4.9375 -0.04296875 C6.03384766 -0.04913208 6.03384766 -0.04913208 7.15234375 -0.05541992 C9 0.1875 9 0.1875 11 2.1875 C10.63880508 8.09726374 8.77213007 13.52746279 6.9375 19.125 C6.51500977 20.43694336 6.51500977 20.43694336 6.08398438 21.77539062 C5.39434445 23.91444327 4.69959171 26.05168579 4 28.1875 C5.05574219 27.71054687 6.11148438 27.23359375 7.19921875 26.7421875 C14.43970832 23.65237818 21.22927257 23.53488988 28.671875 26.109375 C33.53299489 28.36049763 36.78654164 31.4886583 39.875 35.8125 C44.37062132 49.29936397 41.44195188 63.47824593 35.63671875 76.05859375 C33.47534683 80.19047658 31.09816666 83.71284726 28 87.1875 C27.50113281 87.78949219 27.00226563 88.39148438 26.48828125 89.01171875 C20.85569305 95.29894189 11.92459673 100.55626443 3.43359375 101.4609375 C-4.08137215 101.71568211 -9.81359532 100.64828516 -16 96.1875 C-17.77734375 94.015625 -17.77734375 94.015625 -19 92.1875 C-19.433125 93.6415625 -19.433125 93.6415625 -19.875 95.125 C-21 98.1875 -21 98.1875 -23 99.1875 C-25.84504568 99.31182618 -28.65487152 99.3726641 -31.5 99.375 C-32.28503906 99.38724609 -33.07007813 99.39949219 -33.87890625 99.41210938 C-35.92063726 99.41736254 -37.96192251 99.3097018 -40 99.1875 C-40.66 98.5275 -41.32 97.8675 -42 97.1875 C-41.74732838 88.27145595 -37.42071693 79.01054485 -34.5625 70.625 C-34.02591037 69.03626056 -33.48995051 67.44730829 -32.95458984 65.8581543 C-31.85218783 62.58723095 -30.7470028 59.31726676 -29.64013672 56.04785156 C-27.8219393 50.66952576 -26.03218419 45.28193401 -24.2456665 39.89302063 C-21.84536277 32.65281964 -19.42801059 25.41846051 -17 18.1875 C-16.49267334 16.67422119 -16.49267334 16.67422119 -15.97509766 15.13037109 C-15.13820457 12.64621778 -14.29109067 10.16595565 -13.4375 7.6875 C-13.2101416 7.01114502 -12.9827832 6.33479004 -12.74853516 5.63793945 C-10.3707703 -1.1613578 -6.4352524 0.00498085 0 0 Z M-3.125 50.75 C-8.14414541 57.85605323 -11.44717924 66.41618194 -10 75.1875 C-8.66288596 78.49509789 -7.73943249 79.74783744 -4.6875 81.5625 C-0.20281011 82.60545114 2.81624369 81.7415987 6.9375 79.8125 C13.18424085 75.31286873 17.78175059 66.63235748 19 59.1875 C19.4844518 53.50864837 19.8533443 48.78187205 16 44.1875 C8.19671112 40.28585556 1.78640385 44.77036582 -3.125 50.75 Z " fill="#372B86" transform="translate(496,251.8125)"/>
<path d="M0 0 C3.92069428 3.20784077 7.1145767 6.34373009 8.75 11.25 C9.06099626 16.47346785 8.25169204 20.87156362 6.6875 25.8125 C6.36120605 26.89192871 6.36120605 26.89192871 6.02832031 27.99316406 C4.71924124 32.28353001 3.3240141 36.54134357 1.89453125 40.79296875 C-2.58101658 54.15178208 -2.58101658 54.15178208 -4.1796875 68.08203125 C-4.25 70.25 -4.25 70.25 -5.25 71.25 C-8.3656292 71.55467105 -11.49629362 71.52829403 -14.625 71.5625 C-15.93984375 71.60600586 -15.93984375 71.60600586 -17.28125 71.65039062 C-23.76627428 71.71484423 -23.76627428 71.71484423 -26.3515625 69.23046875 C-26.64804687 68.57691406 -26.94453125 67.92335938 -27.25 67.25 C-28.28125 67.86875 -29.3125 68.4875 -30.375 69.125 C-36.89676467 72.79593341 -42.78014027 74.17363026 -50.25 73.25 C-56.17996294 71.43491569 -59.73316659 68.25882334 -63.25 63.25 C-65.80099833 55.597005 -65.0084368 46.73932541 -61.6328125 39.46875 C-57.1139216 32.2181002 -50.22805473 28.65407488 -42.25 26.25 C-37.56121468 25.40877474 -32.86709669 24.93156126 -28.125 24.5 C-26.26101563 24.31244141 -26.26101563 24.31244141 -24.359375 24.12109375 C-21.32395298 23.81755155 -18.28789351 23.52750911 -15.25 23.25 C-15.20745644 21.25045254 -15.20919217 19.24958364 -15.25 17.25 C-16.82027317 15.67972683 -18.39269947 16.08025614 -20.5625 16.0625 C-21.34238281 16.04832031 -22.12226563 16.03414063 -22.92578125 16.01953125 C-25.55704801 16.28044678 -27.03902256 16.80488691 -29.25 18.25 C-29.72050781 18.94480469 -30.19101562 19.63960938 -30.67578125 20.35546875 C-32.25 22.25 -32.25 22.25 -34.66796875 22.67578125 C-35.58191406 22.63839844 -36.49585938 22.60101563 -37.4375 22.5625 C-38.40816406 22.52640625 -39.37882812 22.4903125 -40.37890625 22.453125 C-50.7829429 21.7170571 -50.7829429 21.7170571 -52.25 20.25 C-52.47870712 14.87538268 -50.77281063 12.20780038 -47.3125 8.125 C-35.6445176 -4.02299433 -15.17799035 -8.17276403 0 0 Z M-22.25 40.25 C-33.17969727 41.51154854 -33.17969727 41.51154854 -42.25 47.25 C-42.66666667 49.75 -42.66666667 49.75 -42.25 52.25 C-38.84135134 54.52243244 -37.26875881 54.4206895 -33.30859375 53.78125 C-28.39773398 52.51393135 -25.39204133 49.85086976 -22.8125 45.625 C-22.0390625 43.954375 -22.0390625 43.954375 -21.25 42.25 C-21.58 41.59 -21.91 40.93 -22.25 40.25 Z " fill="#372B86" transform="translate(448.25,279.75)"/>
<path d="M0 0 C4.81070316 3.6536986 6.99707969 7.84315664 7.8515625 13.78125 C7.18107573 22.33453375 4.11127826 30.41678282 1.3515625 38.46875 C-1.73750837 47.70379112 -4.17904642 56.34809385 -4.83203125 66.0703125 C-5.1484375 68.78125 -5.1484375 68.78125 -7.1484375 70.78125 C-10.10583237 71.25030236 -13.09548991 71.15159561 -16.0859375 71.15625 C-16.91029297 71.18074219 -17.73464844 71.20523438 -18.58398438 71.23046875 C-24.65943824 71.26008104 -24.65943824 71.26008104 -27.21484375 68.7578125 C-27.52292969 68.10554688 -27.83101563 67.45328125 -28.1484375 66.78125 C-28.75171875 67.13058594 -29.355 67.47992188 -29.9765625 67.83984375 C-30.77578125 68.29488281 -31.575 68.74992187 -32.3984375 69.21875 C-33.18734375 69.67121094 -33.97625 70.12367188 -34.7890625 70.58984375 C-40.46946235 73.45825758 -47.30103387 73.94814018 -53.40234375 72.09765625 C-59.40184161 69.35405286 -62.8855966 65.70874481 -65.5234375 59.59375 C-66.70148 52.40769077 -66.22859256 45.12066466 -62.56640625 38.6953125 C-56.662143 30.72537037 -49.84641464 26.95897159 -40.22290039 25.2668457 C-37.07701068 24.82529557 -33.93047645 24.44645948 -30.7734375 24.09375 C-29.15501953 23.89942383 -29.15501953 23.89942383 -27.50390625 23.70117188 C-19.70647321 22.78125 -19.70647321 22.78125 -16.1484375 22.78125 C-16.10589394 20.78170254 -16.10762967 18.78083364 -16.1484375 16.78125 C-17.79000486 15.13968264 -19.64059551 15.49309008 -21.8984375 15.40625 C-26.0003765 15.42385489 -26.85736684 15.54958151 -30.2109375 18.21875 C-30.8503125 19.064375 -31.4896875 19.91 -32.1484375 20.78125 C-33.1484375 21.78125 -33.1484375 21.78125 -35.37109375 21.9140625 C-51.05878233 21.87090517 -51.05878233 21.87090517 -54.1484375 18.78125 C-53.66361491 12.83475251 -50.15325054 8.94009431 -46.1484375 4.78125 C-34.02557709 -5.20608873 -13.91059617 -7.89110183 0 0 Z M-42.1484375 44.78125 C-44.39430721 47.46998941 -44.39430721 47.46998941 -43.9609375 49.84375 C-43.2073954 52.14118538 -43.2073954 52.14118538 -40.1484375 53.78125 C-34.28581852 53.58903298 -30.7606421 52.6426306 -26.1484375 48.78125 C-23.96141388 45.79231771 -23.1484375 44.50180546 -23.1484375 40.78125 C-30.07461215 40.25851984 -35.91709783 41.64459923 -42.1484375 44.78125 Z " fill="#372B86" transform="translate(303.1484375,280.21875)"/>
<path d="M0 0 C4.42938484 3.81133115 7.57513664 8.52132995 8.6875 14.3125 C9.12160853 20.49854651 9.12160853 20.49854651 7.6875 23.1875 C4.51789412 24.97040331 1.24164567 25.09765527 -2.3125 25.3125 C-3.11042969 25.38855469 -3.90835938 25.46460938 -4.73046875 25.54296875 C-7.02791522 25.68164007 -9.0478439 25.72845724 -11.3125 25.3125 C-13.25 23.0625 -13.25 23.0625 -14.3125 20.3125 C-15.63360409 17.1661609 -15.63360409 17.1661609 -18.3125 15.3125 C-23.09731582 15.08836402 -27.20691059 15.74708346 -31.0625 18.6875 C-37.59476235 24.97726537 -41.23692884 35.6530329 -41.625 44.5625 C-41.64829672 48.15800531 -41.64829672 48.15800531 -40.06640625 50.05078125 C-37.20854424 52.10665971 -34.86676962 51.3915743 -31.52734375 50.8828125 C-26.87094664 49.68381078 -24.77631999 47.00822999 -22.1875 43.125 C-20.3125 40.3125 -20.3125 40.3125 -17.3125 39.3125 C-14.56607025 39.69505882 -11.90118456 40.14380924 -9.1875 40.6875 C-8.44628906 40.82671875 -7.70507812 40.9659375 -6.94140625 41.109375 C-1.45183177 42.17316823 -1.45183177 42.17316823 -0.3125 43.3125 C0.22392312 46.45440686 0.14631581 48.54730881 -1.51171875 51.3125 C-3.05645497 53.36696027 -4.65920717 55.34447482 -6.3125 57.3125 C-6.93382812 58.14394531 -7.55515625 58.97539062 -8.1953125 59.83203125 C-14.7556257 67.51800705 -24.59426491 71.64897061 -34.4765625 72.625 C-43.24810241 72.95367597 -50.5039905 71.28422877 -57.6875 66.125 C-63.74396613 59.63592914 -65.40706538 52.03615666 -65.3125 43.3125 C-64.42498137 31.36269562 -60.28204709 20.31583268 -52.3125 11.3125 C-51.7040625 10.62285156 -51.095625 9.93320312 -50.46875 9.22265625 C-37.29507444 -4.8135814 -17.26180837 -8.79375143 0 0 Z " fill="#372B86" transform="translate(378.3125,280.6875)"/>
<path d="M0 0 C1.23157837 0.00616333 1.23157837 0.00616333 2.48803711 0.01245117 C3.37942383 0.01438477 4.27081055 0.01631836 5.18920898 0.01831055 C6.1218457 0.03055664 7.05448242 0.04280273 8.01538086 0.05541992 C8.95188477 0.05606445 9.88838867 0.05670898 10.85327148 0.05737305 C17.81268862 0.10272768 17.81268862 0.10272768 18.95288086 1.24291992 C18.71583656 10.19134221 15.41570902 18.28139508 12.45288086 26.61791992 C11.6351203 28.95095627 10.82062677 31.28511679 10.00630188 33.61935425 C9.45733503 35.19226596 8.90727444 36.76479637 8.35612488 38.33694458 C5.33571987 46.96440823 2.47494809 55.64268664 -0.36743164 64.33032227 C-0.7090332 65.36624512 -1.05063477 66.40216797 -1.40258789 67.46948242 C-1.84574341 68.82420654 -1.84574341 68.82420654 -2.29785156 70.20629883 C-3.04711914 72.24291992 -3.04711914 72.24291992 -4.04711914 73.24291992 C-5.52364578 73.34172789 -7.0047915 73.37371238 -8.48461914 73.37573242 C-9.8265332 73.37766602 -9.8265332 73.37766602 -11.19555664 73.37963867 C-12.60708008 73.37383789 -12.60708008 73.37383789 -14.04711914 73.36791992 C-15.45864258 73.3737207 -15.45864258 73.3737207 -16.89868164 73.37963867 C-17.79329102 73.37834961 -18.68790039 73.37706055 -19.60961914 73.37573242 C-20.4359082 73.37460449 -21.26219727 73.37347656 -22.11352539 73.37231445 C-24.04711914 73.24291992 -24.04711914 73.24291992 -25.04711914 72.24291992 C-24.92891987 66.27439377 -23.50240802 60.72994409 -21.60571289 55.11401367 C-21.36219589 54.36952972 -21.11867889 53.62504578 -20.86778259 52.85800171 C-20.08192684 50.46256358 -19.28368535 48.07148018 -18.48461914 45.68041992 C-17.93853384 44.02724109 -17.39312817 42.37383762 -16.84838867 40.72021484 C-15.76331441 37.43093223 -14.6731558 34.1434026 -13.57885742 30.85717773 C-12.21573689 26.75965883 -10.87568453 22.65519378 -9.54321289 18.54760742 C-8.83654471 16.38342633 -8.12954289 14.21935415 -7.42211914 12.05541992 C-7.10428467 11.07178467 -6.7864502 10.08814941 -6.45898438 9.07470703 C-6.16580322 8.1879126 -5.87262207 7.30111816 -5.57055664 6.38745117 C-5.32225098 5.62795166 -5.07394531 4.86845215 -4.81811523 4.0859375 C-3.73703529 1.50168401 -2.84198255 0.33724182 0 0 Z " fill="#372B86" transform="translate(107.047119140625,277.757080078125)"/>
<path d="M0 0 C0.83402344 -0.00386719 1.66804688 -0.00773438 2.52734375 -0.01171875 C3.82865234 0.00568359 3.82865234 0.00568359 5.15625 0.0234375 C6.02378906 0.01183594 6.89132813 0.00023437 7.78515625 -0.01171875 C9.03619141 -0.00591797 9.03619141 -0.00591797 10.3125 0 C11.45428711 0.00507568 11.45428711 0.00507568 12.61914062 0.01025391 C15.19276079 0.5006729 16.11270752 1.30754611 17.65625 3.3984375 C17.35159685 7.80036464 16.00354427 11.94013023 14.71875 16.1484375 C14.37972656 17.27765625 14.04070312 18.406875 13.69140625 19.5703125 C12.65625 22.3984375 12.65625 22.3984375 10.65625 24.3984375 C7.17571051 24.84871429 3.66258808 24.72251722 0.15625 24.7109375 C-0.81957031 24.72705078 -1.79539062 24.74316406 -2.80078125 24.75976562 C-3.73277344 24.76041016 -4.66476563 24.76105469 -5.625 24.76171875 C-6.48158203 24.76469971 -7.33816406 24.76768066 -8.22070312 24.77075195 C-8.92130859 24.64788818 -9.62191406 24.52502441 -10.34375 24.3984375 C-12.34375 21.3984375 -12.34375 21.3984375 -12.20703125 19.453125 C-7.29965633 0.03244978 -7.29965633 0.03244978 0 0 Z " fill="#372B86" transform="translate(118.34375,250.6015625)"/>
</svg>
