<svg version="1.1" id="Layer_1" xmlns="http://www.w3.org/2000/svg" x="0" y="0" viewBox="0 0 595.3 257" xml:space="preserve"><style>.st0{fill:#fff}</style><path class="st0" d="M296.6 235.6c-76 0-152.1.2-228.1-.1-24.1-.1-43.6-9.1-54.3-32.2-4.2-9.1-5.8-18.9-5.9-28.9-.1-31-1.1-62 .6-92.9C10.3 54.7 24.3 31.3 50.4 24c6.2-1.8 12.6-2.5 19-2.5 109.4 0 218.8 0 328.2-.1 4.4 0 7.5 1.5 10.4 4.9 8 9.8 16.2 19.4 24.6 28.9 2.4 2.7 2.3 4.1-.5 6.4-8.5 7.1-8.4 7.2-15.6-1.3-5.7-6.7-11.4-13.4-17-20.2-1.9-2.3-3.9-3.3-7-3.3-108.1.1-216.2.1-324.3.1-19.3 0-33.2 9.8-39.9 27.9-2.7 7.3-4.1 14.7-4.1 22.6.1 28.8 0 57.5.1 86.3 0 3.1 0 6.2.4 9.3 3 23.2 18.7 37 42.2 37.1 24 .1 48 0 72 0h386.5c25.5 0 46.3-20.3 46.4-45.9.2-30.2.2-60.5 0-90.7-.2-29.2-26.3-47.9-47.5-46.9-25.8 1.2-51.7.2-77.5.4-3.9 0-4.9-1-4.9-4.9.2-10.7 0-10.7 10.5-10.7H525c28.6 0 53.2 19.2 60.3 46.9q2.1 8.25 2.1 16.8c-.1 29.1.1 58.3.1 87.4 0 35.5-27.6 63-63.2 63-76 .1-151.8.1-227.7.1"/><path class="st0" d="M133.5 107.2c19.5-10.6 31.9-9.3 39.4 4 7.2-5.9 15.1-10.2 24.6-10.8 15.1-1 23.2 7.8 19.6 22.4-4.5 18.7-11.8 36.6-17.6 54.9-.1.2-.1.3-.2.5-.9 3-3.4 3.2-5.8 2.8-5.6-.8-11.8 2.3-16.8-1.9-1.6-1.3 0-3.5.6-5.2 5.1-15.5 10.3-30.9 15.4-46.4.8-2.3 2.4-4.9-.1-7.1-2.5-2.3-5.5-1.6-8.3-.5-7 2.7-11.1 8.1-14.1 14.7-5.7 12.7-9.5 26.2-13.6 39.4-1.7 5.5-4.2 8-10.1 7.1-2.7-.4-5.5-.1-8.2-.1-6.4 0-7.3-1.1-5.3-7.1 5-15.1 10-30.2 14.9-45.4.9-2.7 2.8-5.6-.1-8.1-2.9-2.6-6.3-1.5-9.3-.1-7.3 3.4-11.4 9.6-14 16.9-4.5 12.8-8.9 25.6-12.9 38.5-1.3 4.1-3.3 5.7-7.4 5.3-3.8-.3-7.7-.1-11.5 0-4.2.1-5.8-1.8-4.4-5.8 7.7-23.1 15.4-46.2 23-69.3.9-2.8 2.6-4.2 5.6-4.1q4.95.15 9.9 0c3.7-.1 7 .3 6.7 5.4M547.2 121c-.9-13.1-10.3-20.2-23.6-20.4-6.5-.1-12.4 2-18.8 5.3 3.1-9.2 5.8-17.5 8.6-25.8 1.5-4.3.1-6.3-4.5-6.3-4 .1-8.1.2-12.1 0-3.8-.3-5.5 1.4-6.6 4.9-10.5 32-21.1 63.9-31.7 95.9-1.6 4.9-.6 6.2 4.7 6.4 1.3 0 2.6-.1 3.9 0 7 .7 13.4.6 13.9-10.4 6.5 10.3 15.1 12.8 25 12 6.6-.5 12.5-2.9 17.7-6.8 18.3-13.6 25.1-32.7 23.5-54.8m-22.3 11.7c-1.3 10-4.8 19.1-12.2 26.2-4.9 4.7-11.1 5.9-15.5 3.6-4.8-2.6-7.2-8.4-6-15.2 1.7-9.8 5.5-18.6 13.7-24.8 4.3-3.3 9.2-4.8 14.3-1.9 4.7 2.4 5.9 6.9 5.7 12.1m-243-31c-8.9-2-17.8-1.7-26.6.8-9.6 2.8-16.8 8.8-21.7 17.4-2 3.5-.9 5.7 3 6.2 4 .5 8.1.5 12 1.1 3.1.5 5-.3 6.9-2.9 3.6-5 10.7-6.8 15.7-4.6 2.4 1 4 2.6 3.5 5.5-.5 2.4-1.1 4.7-4.2 5-2.6.3-5.1.7-7.6 1.1-8.5 1.2-17.1 1.2-25.4 4.1-15 5.3-19.4 19.8-17.9 31.2 1.2 9.3 8.1 15.3 17.5 16.1 8.9.8 16.5-2.4 24-7.8.7 3.5 1.2 6.2 5 6.1 4.6-.1 9.2 0 13.7 0 2.9 0 4.7-1.4 4.3-4.3-1.2-9.9 2.8-18.7 5.7-27.7 2.7-8.3 6.3-16.4 7.5-25.2 1.5-11.6-4-19.5-15.4-22.1m-15.3 47.8c-1.8 7.7-9.6 14.1-17.6 14.1-3.2.2-5.9-.8-7-4.1-1.2-3.7 1-6 3.9-7.6 5.9-3.2 12.5-3.8 19-4.7 2-.2 2.1.6 1.7 2.3m180.1-46.4c-14-4.6-27.8-3.8-40.7 4.1-4.4 2.7-7.9 6.6-10.6 11-3.4 5.5-2.4 7.5 3.9 8.2 3.5.4 7 .4 10.4.9 2.9.4 4.9-.2 6.4-2.8 2.3-3.8 6.1-5.2 10.3-5.4 3.9-.2 8.3-.1 9.1 4.9.7 5-2.9 6.5-7.2 6.8-1.6.1-3.3.4-4.9.6-8.1 1.1-16.4 1.1-24.3 3.9-13.4 4.8-21 17.7-18.6 31.7 1.5 8.9 8.2 14.9 17.2 15.8 8.9.8 16.5-2.3 24.8-8.2-.8 6.4 2.7 6.7 6.8 6.5 3.8-.2 7.7-.1 11.5 0 3.1 0 4.6-1.7 4.2-4.5-1.4-9 2.2-16.9 4.8-25.1 3-9.4 7-18.5 8.4-28.4 1.2-9.2-2.7-17.1-11.5-20m-35.5 60.5c-3.8.5-7.2-.3-8.4-4.3-1.1-3.8 1.6-6.2 4.7-7.7 6.3-3 13.2-3.7 20.6-4.4-2.9 9.4-7.7 15.2-16.9 16.4M332 183c-18.8.1-29.8-11.2-29.1-29.9 1.2-29 21.6-51.1 48.4-52.5 5.2-.3 10.2.3 15.1 2.1 6.6 2.4 11.2 6.9 13.7 13.4 4 10.3 2.3 13.1-8.5 14.4-2 .2-4 .5-6 .8-4 .6-6-.8-6.9-4.9-1.1-5.3-4.7-7.3-10.3-6.6-6.9.9-11.6 5.2-15.1 10.8-3.8 6.1-6.1 12.9-7.4 20-.7 4.1-.2 8.2 3.5 10.9 3.8 2.7 7.7 1.6 11.4-.3 3.8-2 6.8-5 8.8-8.8 1.5-2.7 3.4-3.5 6.3-2.9 3.9.8 8 1.2 11.9 1.9 4.6.8 5.4 2.7 3.3 7-6.7 14.6-22.5 24.5-39.1 24.6m-272.7-1.9c-11.4.1-13.1 1.3-8.6-11.9 7-20.4 13.7-40.9 20.3-61.5 1.4-4.3 3.5-6.5 8.2-6 3.6.4 7.3 0 11 .1 4.1.1 5.7 2 4.3 6.1-7.7 23.1-15.3 46.2-22.9 69.3-1 2.9-2.7 4.1-5.7 3.9-2.2-.1-4.4 0-6.6 0m27.9-83.5c-13.5 0-13.9-.4-9.5-13.1 4.7-13.5 2-11.4 16.2-11.5 13.4-.1 13.4 0 9.2 12.8-.1.2-.1.3-.2.5-4.4 13.4-2.4 11.1-15.7 11.3"/></svg>